<svg xmlns="http://www.w3.org/2000/svg" xmlns:xlink="http://www.w3.org/1999/xlink" width="122.868" height="122.868" viewBox="0 0 122.868 122.868">
  <defs>
    <linearGradient id="linear-gradient" y1="0.5" x2="1" y2="0.5" gradientUnits="objectBoundingBox">
      <stop offset="0" stop-color="#60aae3"/>
      <stop offset="1" stop-color="#053f6c"/>
    </linearGradient>
    <clipPath id="clip-path">
      <circle id="Elipse_14" data-name="Elipse 14" cx="61.434" cy="61.434" r="61.434" transform="translate(0 0)" fill="#fff"/>
    </clipPath>
  </defs>
  <g id="avatarhombrebienvenida" transform="translate(-119 -188.131)">
    <g id="avatarhombreadultobienvenida" transform="translate(805 -17159.869)">
      <path id="Trazado_1147" data-name="Trazado 1147" d="M61.39,0A61.39,61.39,0,1,1,0,61.39,61.39,61.39,0,0,1,61.39,0Z" transform="translate(-686 17348)" opacity="0.995" fill="url(#linear-gradient)"/>
    </g>
    <g id="Grupo_567" data-name="Grupo 567" transform="translate(923 -16420.869)">
      <g id="Enmascarar_grupo_2" data-name="Enmascarar grupo 2" transform="translate(-804 16609)" clip-path="url(#clip-path)">
        <g id="boy-2" transform="translate(23.038 12.799)">
          <path id="Trazado_876" data-name="Trazado 876" d="M147.43,179.115l-.171-1.54a1.11,1.11,0,0,0-1.225-.98l-.1.011-1.655-13.242a7.539,7.539,0,0,0-5.1-6.216L127,153.084q-.367.828-.81,1.615l-2.529-.843a3.769,3.769,0,0,1-2.577-3.576V144.2l8.118-3.382a11.306,11.306,0,0,0,6.958-10.437V128.5a5.653,5.653,0,1,0,0-11.307v-3.769A9.423,9.423,0,0,0,126.732,104H92.813a9.422,9.422,0,0,0-9.422,9.422v3.769a5.654,5.654,0,0,0,0,11.307v1.885a11.307,11.307,0,0,0,6.958,10.437l8.118,3.383v6.078a3.769,3.769,0,0,1-2.577,3.576l-2.529.843q-.442-.786-.81-1.615l-12.19,4.063a7.538,7.538,0,0,0-5.1,6.216l-1.655,13.242-.1-.011a1.11,1.11,0,0,0-1.225.98l-.171,1.54a1.11,1.11,0,0,0,.98,1.225l2.757.306v4.386a3.769,3.769,0,0,0,3.769,3.769h60.3a3.769,3.769,0,0,0,3.769-3.769v-4.386l2.756-.306a1.11,1.11,0,0,0,.989-1.225Z" transform="translate(-72.108 -79.502)" fill="#f6b47b"/>
          <path id="Trazado_877" data-name="Trazado 877" d="M148.3,13.241v-.049a9.364,9.364,0,0,0-13.49-8.463,8.325,8.325,0,0,0-9.95-1.985,5.62,5.62,0,0,0-9.928.514A7.511,7.511,0,0,0,103.64,6.579a3.751,3.751,0,0,0-6.218,2.844S88,9.344,88,20.729c0,5.306,3.769,20.729,3.769,20.729h60.3a108.4,108.4,0,0,0,1.884-20.729C153.957,17.465,150.924,14.874,148.3,13.241Z" transform="translate(-84.256)" fill="#734a3e"/>
          <path id="Trazado_878" data-name="Trazado 878" d="M118.928,30.04A9.37,9.37,0,0,1,119,11.411,9.277,9.277,0,0,1,121.663.26,5.53,5.53,0,0,0,120.036,0a5.641,5.641,0,0,0-5.1,3.258,7.511,7.511,0,0,0-11.3,3.321,3.751,3.751,0,0,0-6.218,2.844S88,9.344,88,20.729c0,5.306,3.769,20.729,3.769,20.729h27.089Z" transform="translate(-84.256)" fill="#5e342e"/>
          <path id="Trazado_879" data-name="Trazado 879" d="M200.485,274H177.871v6.235a3.736,3.736,0,0,1-1.889,3.218c15.806,2.767,24.5-9.453,24.5-9.453Z" transform="translate(-151.514 -209.457)" fill="#e2a071"/>
          <path id="Trazado_880" data-name="Trazado 880" d="M154.419,117.191v-3.769A9.423,9.423,0,0,0,145,104H111.076a9.422,9.422,0,0,0-9.422,9.422v3.769a5.654,5.654,0,0,0,0,11.307v1.885a11.307,11.307,0,0,0,6.958,10.437l12.176,5.074a18.84,18.84,0,0,0,14.5,0l12.178-5.074a11.306,11.306,0,0,0,6.958-10.437V128.5a5.653,5.653,0,1,0,0-11.307Z" transform="translate(-90.372 -79.502)" fill="#fdc88e"/>
          <path id="Trazado_884" data-name="Trazado 884" d="M111.547,137.529a8.834,8.834,0,0,1-2.354-6.036V104.806a9.425,9.425,0,0,0-7.538,9.233v3.769a5.654,5.654,0,0,0,0,11.307V131a11.307,11.307,0,0,0,6.958,10.437l12.176,5.073a18.876,18.876,0,0,0,1.82.648,78.641,78.641,0,0,1-11.062-9.629Z" transform="translate(-90.372 -80.118)" fill="#f6b47b"/>
          <path id="Trazado_885" data-name="Trazado 885" d="M148.7,322.652a7.539,7.539,0,0,0-5.1-6.216l-12.19-4.063-11.57,7.45-3.769,3.769H112.3l-3.769-3.769-11.57-7.45-12.19,4.064a7.537,7.537,0,0,0-5.1,6.216l-1.792,14.339,15.573,1.676v9.422h41.459v-9.422H150.7Z" transform="translate(-76.527 -238.789)" fill="#3299dd"/>
          <path id="Trazado_886" data-name="Trazado 886" d="M92.892,361.338v-4.265a7.539,7.539,0,0,0-1.84-4.936l-10.369-11.97a7.522,7.522,0,0,0-1.571,3.732l-1.968,15.747c3,.181,10.969,1.115,15.748,1.692Z" transform="translate(-75.957 -260.038)" fill="#15679d"/>
          <path id="Trazado_887" data-name="Trazado 887" d="M89.042,413.884,73.51,412.159a1.11,1.11,0,0,0-1.225.98l-.171,1.54a1.11,1.11,0,0,0,.98,1.225l15.948,1.772Z" transform="translate(-72.107 -315.065)" fill="#15679d"/>
          <path id="Trazado_888" data-name="Trazado 888" d="M320,361.338v-4.265a7.539,7.539,0,0,1,1.84-4.936l10.369-11.97a7.522,7.522,0,0,1,1.571,3.732l1.968,15.747c-3,.181-10.969,1.115-15.748,1.692Z" transform="translate(-261.606 -260.038)" fill="#15679d"/>
          <path id="Trazado_889" data-name="Trazado 889" d="M320,413.884l15.532-1.726a1.11,1.11,0,0,1,1.225.98l.171,1.54a1.11,1.11,0,0,1-.98,1.225L320,417.676Z" transform="translate(-261.606 -315.065)" fill="#15679d"/>
          <path id="Trazado_890" data-name="Trazado 890" d="M158.7,299.933l6.493,9.739-5.653,7.538L152,302.134l4.086-2.724a1.884,1.884,0,0,1,2.614.523Z" transform="translate(-133.18 -228.639)" fill="#15679d"/>
          <path id="Trazado_891" data-name="Trazado 891" d="M262.493,299.933,256,309.672l5.653,7.538,7.538-15.076-4.086-2.724a1.884,1.884,0,0,0-2.612.523Z" transform="translate(-212.682 -228.639)" fill="#15679d"/>
          <path id="Trazado_892" data-name="Trazado 892" d="M225.884,375.076A1.885,1.885,0,0,1,224,373.191V360h3.769v13.191a1.884,1.884,0,0,1-1.885,1.885Z" transform="translate(-188.22 -275.198)" fill="#15679d"/>
          <path id="Trazado_893" data-name="Trazado 893" d="M194.4,47.538a6.523,6.523,0,0,0-2.944.723,9.382,9.382,0,0,0-17.178-4,6.521,6.521,0,0,0-4.984,0A9.433,9.433,0,1,0,168.232,55.9a6.519,6.519,0,0,0,7.109,0,9.312,9.312,0,0,0,12.93.627,6.59,6.59,0,1,0,6.13-9Z" transform="translate(-133.18 -30.578)" fill="#734a3e"/>
          <circle id="Elipse_1" data-name="Elipse 1" cx="8.951" cy="8.951" r="8.951" transform="translate(11.517 10.6)" fill="#5e342e"/>
        </g>
      </g>
      <g id="Grupo_553" data-name="Grupo 553" transform="translate(-760.484 16670.434)">
        <path id="Trazado_959" data-name="Trazado 959" d="M-768.657,16633s-9.406,2.385-14.059,5.164-4.555,5.959-4.555,5.959l18.615-4.9Z" transform="translate(787.272 -16633)" fill="#5e342e"/>
        <path id="Trazado_960" data-name="Trazado 960" d="M-787.272,16633s9.406,2.385,14.059,5.164,4.556,5.959,4.556,5.959l-18.615-4.9Z" transform="translate(802.631 -16633)" fill="#5e342e"/>
      </g>
    </g>
  </g>
</svg>
