<svg width="100" height="100" viewBox="0 0 100 100" fill="none" xmlns="http://www.w3.org/2000/svg">
<g id="Cargando/1" clip-path="url(#clip0_16_85)">
<circle id="Ellipse 3" cx="50" cy="50" r="45" stroke="white" stroke-width="10"/>
<path id="Ellipse 4" d="M95 50C95 60.7146 91.1769 71.0777 84.2183 79.2252C77.2597 87.3726 67.6223 92.7698 57.0396 94.446C46.4568 96.1221 35.6233 93.9672 26.4876 88.3688C17.3518 82.7704 10.5135 74.096 7.20246 63.9058C3.89145 53.7155 4.32511 42.6783 8.42542 32.7792C12.5257 22.8802 20.0236 14.7691 29.5704 9.90471C39.1172 5.04036 50.0864 3.74207 60.505 6.24335C70.9236 8.74464 80.1079 14.8813 86.4058 23.5497" stroke="white" stroke-width="10" stroke-linejoin="round"/>
<path id="Ellipse 6" d="M25 50C25 44.0421 27.1278 38.28 30.9999 33.752C34.8721 29.224 40.2341 26.2277 46.1198 25.303C52.0055 24.3782 58.028 25.5859 63.1021 28.7084C68.1763 31.8308 71.9685 36.6628 73.7955 42.3336C75.6225 48.0045 75.3643 54.1414 73.0672 59.6387C70.7701 65.136 66.5853 69.6322 61.2667 72.3173C55.9481 75.0023 49.8455 75.6997 44.0583 74.2837C38.2711 72.8677 33.1799 69.4314 29.7019 64.594" stroke="#004486" stroke-width="10"/>
</g>
<defs>
<clipPath id="clip0_16_85">
<rect width="100" height="100" fill="white"/>
</clipPath>
</defs>
</svg>
