<svg id="avatarmujerperfil_2" data-name="avatarmujerperfil 2" xmlns="http://www.w3.org/2000/svg" xmlns:xlink="http://www.w3.org/1999/xlink" width="61" height="61" viewBox="0 0 61 61">
  <defs>
    <linearGradient id="linear-gradient" y1="0.5" x2="1" y2="0.5" gradientUnits="objectBoundingBox">
      <stop offset="0" stop-color="#60aae3"/>
      <stop offset="1" stop-color="#053f6c"/>
    </linearGradient>
    <clipPath id="clip-path">
      <circle id="Elipse_30" data-name="Elipse 30" cx="30.5" cy="30.5" r="30.5" fill="#fff"/>
    </clipPath>
  </defs>
  <path id="Trazado_1147" data-name="Trazado 1147" d="M30.5,0A30.5,30.5,0,1,1,0,30.5,30.5,30.5,0,0,1,30.5,0Z" opacity="0.995" fill="url(#linear-gradient)"/>
  <g id="Enmascarar_grupo_19" data-name="Enmascarar grupo 19" clip-path="url(#clip-path)">
    <g id="girl-2" transform="translate(7.609 8.896)">
      <g id="Grupo_674" data-name="Grupo 674" transform="translate(0 21.518)">
        <path id="Trazado_1148" data-name="Trazado 1148" d="M47.487,184a3.742,3.742,0,0,0-3.742,3.742,3.7,3.7,0,0,0,.158,1.019,3.742,3.742,0,0,0-2.965,3.659,3.7,3.7,0,0,0,.468,1.778,3.711,3.711,0,0,0,.719,6.26,3.718,3.718,0,0,0,3.491,5.061h16.84V184Z" transform="translate(-40.002 -184)" fill="#5e342e"/>
        <path id="Trazado_1149" data-name="Trazado 1149" d="M254.456,197.1a3.72,3.72,0,0,0-1.4-2.9,3.7,3.7,0,0,0,.468-1.778,3.742,3.742,0,0,0-2.965-3.659,3.7,3.7,0,0,0,.158-1.019A3.742,3.742,0,0,0,246.971,184H232v21.519h16.841a3.718,3.718,0,0,0,3.491-5.061,3.732,3.732,0,0,0,2.124-3.358Z" transform="translate(-209.548 -184)" fill="#734a3e"/>
      </g>
      <path id="Trazado_1150" data-name="Trazado 1150" d="M118.14,128.8l-1.075-8.059a4.67,4.67,0,0,0-.824-2.09.935.935,0,0,0-.366-1.2l-3.073-1.844a.936.936,0,0,0-1.275.306l-.065.1-3.782-1.392a1.871,1.871,0,0,1-1.279-1.775v-3.017l4.03-1.679a5.614,5.614,0,0,0,3.455-5.182v-8.42c0-2.583-2.094-6.549-4.678-6.549H92.368c-2.584,0-4.678,3.966-4.678,6.549v8.42a5.613,5.613,0,0,0,3.455,5.182l4.029,1.679v3.017a1.871,1.871,0,0,1-1.279,1.775l-3.782,1.392-.065-.1a.936.936,0,0,0-1.275-.306L85.7,117.452a.935.935,0,0,0-.366,1.2,4.673,4.673,0,0,0-.824,2.09L83.436,128.8a2.807,2.807,0,0,0,2.782,3.178h29.141a2.807,2.807,0,0,0,2.781-3.178Z" transform="translate(-78.334 -77.711)" fill="#f6b47b"/>
      <path id="Trazado_1151" data-name="Trazado 1151" d="M188.384,274H177.157v3.1a1.87,1.87,0,0,1-.907,1.6A12.706,12.706,0,0,0,188.384,274Z" transform="translate(-160.316 -241.956)" fill="#e2a071"/>
      <g id="Grupo_675" data-name="Grupo 675" transform="translate(9.356 10.292)">
        <path id="Trazado_1152" data-name="Trazado 1152" d="M142.744,108.155l-6.046,2.519a9.36,9.36,0,0,1-7.2,0l-6.044-2.519A5.613,5.613,0,0,1,120,102.973v-8.42C120,91.97,122.1,88,124.68,88h16.84c2.583,0,4.678,3.966,4.678,6.549v8.42a5.613,5.613,0,0,1-3.454,5.186Z" transform="translate(-120.002 -88.004)" fill="#fdc88e"/>
      </g>
      <path id="Trazado_1156" data-name="Trazado 1156" d="M133.1,64a34.862,34.862,0,0,1-8.654,7.016C122.588,72.159,120,74.6,120,76.868V81.78a5.614,5.614,0,0,0,3.454,5.182l6.045,2.519a9.374,9.374,0,0,0,.9.321,39.048,39.048,0,0,1-5.492-4.78,4.386,4.386,0,0,1-1.169-3V75.477c2.883-3.167,11.093-5.86,11.227-8.666A3.186,3.186,0,0,0,133.1,64Z" transform="translate(-110.646 -56.519)" fill="#f6b47b"/>
      <g id="Grupo_680" data-name="Grupo 680" transform="translate(6.912 37.763)">
        <path id="Trazado_1157" data-name="Trazado 1157" d="M125.386,323.345l-3.366,5.386a2.807,2.807,0,0,1-2.38,1.319h-9.987a2.807,2.807,0,0,1-2.38-1.319l-3.366-5.386a.935.935,0,0,0-1.275-.306l-3.073,1.844a.936.936,0,0,0-.312,1.3l4.173,6.677h22.454l4.173-6.677a.936.936,0,0,0-.312-1.3l-3.073-1.844a.935.935,0,0,0-1.276.306Z" transform="translate(-99.104 -322.905)" fill="#3299dd"/>
      </g>
      <g id="Grupo_681" data-name="Grupo 681" transform="translate(11.227 47.715)">
        <path id="Rectángulo_853" data-name="Rectángulo 853" d="M0,0H22.454V6.549H0Z" fill="#15679d"/>
      </g>
      <path id="Trazado_1158" data-name="Trazado 1158" d="M88.61,22.571v-.116c0-5.769,13.1-10.447,13.1-13.1V.936S101.322.035,98.9,0a10.7,10.7,0,0,0-5.613,1.871C87.6,5.9,85.336,15.1,84.453,22.571Z" transform="translate(-79.255)" fill="#5e342e"/>
      <path id="Trazado_1159" data-name="Trazado 1159" d="M245.1,22.455v.116h4.157c-.883-7.475-3.145-16.672-8.835-20.7A10.7,10.7,0,0,0,234.809,0C232.388.035,232,.936,232,.936v8.42C232,12.007,245.1,16.685,245.1,22.455Z" transform="translate(-209.548)" fill="#734a3e"/>
    </g>
  </g>
</svg>
